<svg xmlns="http://www.w3.org/2000/svg" xmlns:xlink="http://www.w3.org/1999/xlink" width="840" height="61.709999999999994"><rect width="840" height="61.709999999999994" rx="0" ry="0" class="a"></rect><svg height="21.709999999999997" viewBox="0 0 80 2.171" width="800" x="20" xmlns="http://www.w3.org/2000/svg" xmlns:xlink="http://www.w3.org/1999/xlink" y="20"><style>.a{fill:rgb(241,243,245)}.b{font-family:'Fira Code',Monaco,Consolas,Menlo,'Bitstream Vera Sans Mono','Powerline Symbols',monospace}.c{fill:rgb(23,36,49);white-space:pre}.d{fill:rgb(133,153,0);white-space:pre}.e{fill:transparent}.g{animation-duration:10.2565119999999s;animation-iteration-count:infinite;animation-name:f;animation-timing-function:steps(1,end)}@keyframes f{0%{transform:translateX(-0px)}1.1%{transform:translateX(-80px)}1.2%{transform:translateX(-160px)}2.9%{transform:translateX(-240px)}4.5%{transform:translateX(-320px)}6.2%{transform:translateX(-400px)}7.9%{transform:translateX(-480px)}11%{transform:translateX(-560px)}12.7%{transform:translateX(-640px)}14.4%{transform:translateX(-720px)}16.1%{transform:translateX(-800px)}17.8%{transform:translateX(-880px)}21%{transform:translateX(-960px)}22.7%{transform:translateX(-1040px)}24.3%{transform:translateX(-1120px)}26%{transform:translateX(-1200px)}27.6%{transform:translateX(-1280px)}30.8%{transform:translateX(-1360px)}32.5%{transform:translateX(-1440px)}34.1%{transform:translateX(-1520px)}35.8%{transform:translateX(-1600px)}37.5%{transform:translateX(-1680px)}39.2%{transform:translateX(-1760px)}40.9%{transform:translateX(-1840px)}40.9%{transform:translateX(-1920px)}40.9%{transform:translateX(-2000px)}40.9%{transform:translateX(-2080px)}100%{transform:translateX(-2160px)}}</style><g font-family="&#x27;Fira Code&#x27;,Monaco,Consolas,Menlo,&#x27;Bitstream Vera Sans Mono&#x27;,&#x27;Powerline Symbols&#x27;,monospace" font-size="1.67" class="b"><defs><symbol id="1"><text font-size="1.67" x="0" y="1.67" class="c">[4.2s]</text><text font-size="1.67" x="7.013999999999999" y="1.67" class="d">■■■■■■■■■■■■■■■■■■■■■■■■■■■■■■■</text><text font-size="1.67" x="40.08" y="1.67" class="c">100%</text><text font-size="1.67" x="45.089999999999996" y="1.67" class="c">[25/25]</text><text font-size="1.67" x="53.105999999999995" y="1.67" class="c">P:</text><text font-size="1.67" x="56.111999999999995" y="1.67" class="c">Adding</text><text font-size="1.67" x="63.12599999999999" y="1.67" class="c">25</text></symbol><symbol id="a"><rect height="1" width="80" x="0" y="0" class="e"></rect></symbol></defs><rect height="2.171" width="80" class="a"></rect><g class="g"><svg x="0" y="0" width="2240"><svg x="0"><use xlink:href="#a"></use></svg><svg x="80"><use xlink:href="#a"></use></svg><svg x="160"><use xlink:href="#a"></use><text font-size="1.67" x="0" y="1.67" class="c">[94ms]</text><text font-size="1.67" x="7.013999999999999" y="1.67" class="c">⠙</text><text font-size="1.67" x="9.017999999999999" y="1.67" class="d">■■</text><text font-size="1.67" x="44.087999999999994" y="1.67" class="c">4%</text><text font-size="1.67" x="47.093999999999994" y="1.67" class="c">[1/25]</text><text font-size="1.67" x="54.108" y="1.67" class="c">(ETA:</text><text font-size="1.67" x="61.12199999999999" y="1.67" class="c">2s)</text><text font-size="1.67" x="65.13" y="1.67" class="c">P:</text><text font-size="1.67" x="68.136" y="1.67" class="c">A…</text></svg><svg x="240"><use xlink:href="#a"></use><text font-size="1.67" x="0" y="1.67" class="c">[277ms]</text><text font-size="1.67" x="8.016" y="1.67" class="c">⠹</text><text font-size="1.67" x="10.02" y="1.67" class="d">■■■</text><text font-size="1.67" x="45.089999999999996" y="1.67" class="c">8%</text><text font-size="1.67" x="48.096" y="1.67" class="c">[2/25]</text><text font-size="1.67" x="55.10999999999999" y="1.67" class="c">(ETA:</text><text font-size="1.67" x="62.123999999999995" y="1.67" class="c">3s)</text><text font-size="1.67" x="66.13199999999999" y="1.67" class="c">P:</text><text font-size="1.67" x="69.13799999999999" y="1.67" class="c">…</text></svg><svg x="320"><use xlink:href="#a"></use><text font-size="1.67" x="0" y="1.67" class="c">[449ms]</text><text font-size="1.67" x="8.016" y="1.67" class="c">⠸</text><text font-size="1.67" x="10.02" y="1.67" class="d">■■■■■</text><text font-size="1.67" x="44.087999999999994" y="1.67" class="c">12%</text><text font-size="1.67" x="48.096" y="1.67" class="c">[3/25]</text><text font-size="1.67" x="55.10999999999999" y="1.67" class="c">(ETA:</text><text font-size="1.67" x="62.123999999999995" y="1.67" class="c">3s)</text><text font-size="1.67" x="66.13199999999999" y="1.67" class="c">P:</text><text font-size="1.67" x="69.13799999999999" y="1.67" class="c">…</text></svg><svg x="400"><use xlink:href="#a"></use><text font-size="1.67" x="0" y="1.67" class="c">[616ms]</text><text font-size="1.67" x="8.016" y="1.67" class="c">⠼</text><text font-size="1.67" x="10.02" y="1.67" class="d">■■■■■■</text><text font-size="1.67" x="44.087999999999994" y="1.67" class="c">16%</text><text font-size="1.67" x="48.096" y="1.67" class="c">[4/25]</text><text font-size="1.67" x="55.10999999999999" y="1.67" class="c">(ETA:</text><text font-size="1.67" x="62.123999999999995" y="1.67" class="c">3s)</text><text font-size="1.67" x="66.13199999999999" y="1.67" class="c">P:</text><text font-size="1.67" x="69.13799999999999" y="1.67" class="c">…</text></svg><svg x="480"><use xlink:href="#a"></use><text font-size="1.67" x="0" y="1.67" class="c">[789ms]</text><text font-size="1.67" x="8.016" y="1.67" class="c">⠴</text><text font-size="1.67" x="10.02" y="1.67" class="d">■■■■■■■</text><text font-size="1.67" x="44.087999999999994" y="1.67" class="c">20%</text><text font-size="1.67" x="48.096" y="1.67" class="c">[5/25]</text><text font-size="1.67" x="55.10999999999999" y="1.67" class="c">(ETA:</text><text font-size="1.67" x="62.123999999999995" y="1.67" class="c">3s)</text><text font-size="1.67" x="66.13199999999999" y="1.67" class="c">P:</text><text font-size="1.67" x="69.13799999999999" y="1.67" class="c">…</text></svg><svg x="560"><use xlink:href="#a"></use><text font-size="1.67" x="0" y="1.67" class="c">[1.1s]</text><text font-size="1.67" x="7.013999999999999" y="1.67" class="c">⠦</text><text font-size="1.67" x="9.017999999999999" y="1.67" class="d">■■■■■■■■■</text><text font-size="1.67" x="43.086" y="1.67" class="c">28%</text><text font-size="1.67" x="47.093999999999994" y="1.67" class="c">[7/25]</text><text font-size="1.67" x="54.108" y="1.67" class="c">(ETA:</text><text font-size="1.67" x="61.12199999999999" y="1.67" class="c">3s)</text><text font-size="1.67" x="65.13" y="1.67" class="c">P:</text><text font-size="1.67" x="68.136" y="1.67" class="c">A…</text></svg><svg x="640"><use xlink:href="#a"></use><text font-size="1.67" x="0" y="1.67" class="c">[1.3s]</text><text font-size="1.67" x="7.013999999999999" y="1.67" class="c">⠧</text><text font-size="1.67" x="9.017999999999999" y="1.67" class="d">■■■■■■■■■■■</text><text font-size="1.67" x="43.086" y="1.67" class="c">32%</text><text font-size="1.67" x="47.093999999999994" y="1.67" class="c">[8/25]</text><text font-size="1.67" x="54.108" y="1.67" class="c">(ETA:</text><text font-size="1.67" x="61.12199999999999" y="1.67" class="c">3s)</text><text font-size="1.67" x="65.13" y="1.67" class="c">P:</text><text font-size="1.67" x="68.136" y="1.67" class="c">A…</text></svg><svg x="720"><use xlink:href="#a"></use><text font-size="1.67" x="0" y="1.67" class="c">[1.5s]</text><text font-size="1.67" x="7.013999999999999" y="1.67" class="c">⠇</text><text font-size="1.67" x="9.017999999999999" y="1.67" class="d">■■■■■■■■■■■■</text><text font-size="1.67" x="43.086" y="1.67" class="c">36%</text><text font-size="1.67" x="47.093999999999994" y="1.67" class="c">[9/25]</text><text font-size="1.67" x="54.108" y="1.67" class="c">(ETA:</text><text font-size="1.67" x="61.12199999999999" y="1.67" class="c">3s)</text><text font-size="1.67" x="65.13" y="1.67" class="c">P:</text><text font-size="1.67" x="68.136" y="1.67" class="c">A…</text></svg><svg x="800"><use xlink:href="#a"></use><text font-size="1.67" x="0" y="1.67" class="c">[1.6s]</text><text font-size="1.67" x="7.013999999999999" y="1.67" class="c">⠏</text><text font-size="1.67" x="9.017999999999999" y="1.67" class="d">■■■■■■■■■■■■■</text><text font-size="1.67" x="43.086" y="1.67" class="c">40%</text><text font-size="1.67" x="47.093999999999994" y="1.67" class="c">[10/25]</text><text font-size="1.67" x="55.10999999999999" y="1.67" class="c">(ETA:</text><text font-size="1.67" x="62.123999999999995" y="1.67" class="c">2s)</text><text font-size="1.67" x="66.13199999999999" y="1.67" class="c">P:</text><text font-size="1.67" x="69.13799999999999" y="1.67" class="c">…</text></svg><svg x="880"><use xlink:href="#a"></use><text font-size="1.67" x="0" y="1.67" class="c">[1.8s]</text><text font-size="1.67" x="7.013999999999999" y="1.67" class="c">⠋</text><text font-size="1.67" x="9.017999999999999" y="1.67" class="d">■■■■■■■■■■■■■■</text><text font-size="1.67" x="43.086" y="1.67" class="c">44%</text><text font-size="1.67" x="47.093999999999994" y="1.67" class="c">[11/25]</text><text font-size="1.67" x="55.10999999999999" y="1.67" class="c">(ETA:</text><text font-size="1.67" x="62.123999999999995" y="1.67" class="c">2s)</text><text font-size="1.67" x="66.13199999999999" y="1.67" class="c">P:</text><text font-size="1.67" x="69.13799999999999" y="1.67" class="c">…</text></svg><svg x="960"><use xlink:href="#a"></use><text font-size="1.67" x="0" y="1.67" class="c">[2.1s]</text><text font-size="1.67" x="7.013999999999999" y="1.67" class="c">⠙</text><text font-size="1.67" x="9.017999999999999" y="1.67" class="d">■■■■■■■■■■■■■■■■■</text><text font-size="1.67" x="43.086" y="1.67" class="c">52%</text><text font-size="1.67" x="47.093999999999994" y="1.67" class="c">[13/25]</text><text font-size="1.67" x="55.10999999999999" y="1.67" class="c">(ETA:</text><text font-size="1.67" x="62.123999999999995" y="1.67" class="c">2s)</text><text font-size="1.67" x="66.13199999999999" y="1.67" class="c">P:</text><text font-size="1.67" x="69.13799999999999" y="1.67" class="c">…</text></svg><svg x="1040"><use xlink:href="#a"></use><text font-size="1.67" x="0" y="1.67" class="c">[2.3s]</text><text font-size="1.67" x="7.013999999999999" y="1.67" class="c">⠹</text><text font-size="1.67" x="9.017999999999999" y="1.67" class="d">■■■■■■■■■■■■■■■■■■</text><text font-size="1.67" x="43.086" y="1.67" class="c">56%</text><text font-size="1.67" x="47.093999999999994" y="1.67" class="c">[14/25]</text><text font-size="1.67" x="55.10999999999999" y="1.67" class="c">(ETA:</text><text font-size="1.67" x="62.123999999999995" y="1.67" class="c">2s)</text><text font-size="1.67" x="66.13199999999999" y="1.67" class="c">P:</text><text font-size="1.67" x="69.13799999999999" y="1.67" class="c">…</text></svg><svg x="1120"><use xlink:href="#a"></use><text font-size="1.67" x="0" y="1.67" class="c">[2.5s]</text><text font-size="1.67" x="7.013999999999999" y="1.67" class="c">⠸</text><text font-size="1.67" x="9.017999999999999" y="1.67" class="d">■■■■■■■■■■■■■■■■■■■</text><text font-size="1.67" x="43.086" y="1.67" class="c">60%</text><text font-size="1.67" x="47.093999999999994" y="1.67" class="c">[15/25]</text><text font-size="1.67" x="55.10999999999999" y="1.67" class="c">(ETA:</text><text font-size="1.67" x="62.123999999999995" y="1.67" class="c">2s)</text><text font-size="1.67" x="66.13199999999999" y="1.67" class="c">P:</text><text font-size="1.67" x="69.13799999999999" y="1.67" class="c">…</text></svg><svg x="1200"><use xlink:href="#a"></use><text font-size="1.67" x="0" y="1.67" class="c">[2.6s]</text><text font-size="1.67" x="7.013999999999999" y="1.67" class="c">⠼</text><text font-size="1.67" x="9.017999999999999" y="1.67" class="d">■■■■■■■■■■■■■■■■■■■■</text><text font-size="1.67" x="43.086" y="1.67" class="c">64%</text><text font-size="1.67" x="47.093999999999994" y="1.67" class="c">[16/25]</text><text font-size="1.67" x="55.10999999999999" y="1.67" class="c">(ETA:</text><text font-size="1.67" x="62.123999999999995" y="1.67" class="c">1s)</text><text font-size="1.67" x="66.13199999999999" y="1.67" class="c">P:</text><text font-size="1.67" x="69.13799999999999" y="1.67" class="c">…</text></svg><svg x="1280"><use xlink:href="#a"></use><text font-size="1.67" x="0" y="1.67" class="c">[2.8s]</text><text font-size="1.67" x="7.013999999999999" y="1.67" class="c">⠴</text><text font-size="1.67" x="9.017999999999999" y="1.67" class="d">■■■■■■■■■■■■■■■■■■■■■</text><text font-size="1.67" x="43.086" y="1.67" class="c">68%</text><text font-size="1.67" x="47.093999999999994" y="1.67" class="c">[17/25]</text><text font-size="1.67" x="55.10999999999999" y="1.67" class="c">(ETA:</text><text font-size="1.67" x="62.123999999999995" y="1.67" class="c">1s)</text><text font-size="1.67" x="66.13199999999999" y="1.67" class="c">P:</text><text font-size="1.67" x="69.13799999999999" y="1.67" class="c">…</text></svg><svg x="1360"><use xlink:href="#a"></use><text font-size="1.67" x="0" y="1.67" class="c">[3.1s]</text><text font-size="1.67" x="7.013999999999999" y="1.67" class="c">⠦</text><text font-size="1.67" x="9.017999999999999" y="1.67" class="d">■■■■■■■■■■■■■■■■■■■■■■■■</text><text font-size="1.67" x="43.086" y="1.67" class="c">76%</text><text font-size="1.67" x="47.093999999999994" y="1.67" class="c">[19/25]</text><text font-size="1.67" x="55.10999999999999" y="1.67" class="c">(ETA:</text><text font-size="1.67" x="62.123999999999995" y="1.67" class="c">1s)</text><text font-size="1.67" x="66.13199999999999" y="1.67" class="c">P:</text><text font-size="1.67" x="69.13799999999999" y="1.67" class="c">…</text></svg><svg x="1440"><use xlink:href="#a"></use><text font-size="1.67" x="0" y="1.67" class="c">[3.3s]</text><text font-size="1.67" x="7.013999999999999" y="1.67" class="c">⠧</text><text font-size="1.67" x="9.017999999999999" y="1.67" class="d">■■■■■■■■■■■■■■■■■■■■■■■■■</text><text font-size="1.67" x="43.086" y="1.67" class="c">80%</text><text font-size="1.67" x="47.093999999999994" y="1.67" class="c">[20/25]</text><text font-size="1.67" x="55.10999999999999" y="1.67" class="c">(ETA:</text><text font-size="1.67" x="62.123999999999995" y="1.67" class="c">1s)</text><text font-size="1.67" x="66.13199999999999" y="1.67" class="c">P:</text><text font-size="1.67" x="69.13799999999999" y="1.67" class="c">…</text></svg><svg x="1520"><use xlink:href="#a"></use><text font-size="1.67" x="0" y="1.67" class="c">[3.5s]</text><text font-size="1.67" x="7.013999999999999" y="1.67" class="c">⠇</text><text font-size="1.67" x="9.017999999999999" y="1.67" class="d">■■■■■■■■■■■■■■■■■■■■■■■■■■</text><text font-size="1.67" x="43.086" y="1.67" class="c">84%</text><text font-size="1.67" x="47.093999999999994" y="1.67" class="c">[21/25]</text><text font-size="1.67" x="55.10999999999999" y="1.67" class="c">(ETA:</text><text font-size="1.67" x="62.123999999999995" y="1.67" class="c">1s)</text><text font-size="1.67" x="66.13199999999999" y="1.67" class="c">P:</text><text font-size="1.67" x="69.13799999999999" y="1.67" class="c">…</text></svg><svg x="1600"><use xlink:href="#a"></use><text font-size="1.67" x="0" y="1.67" class="c">[3.7s]</text><text font-size="1.67" x="7.013999999999999" y="1.67" class="c">⠏</text><text font-size="1.67" x="9.017999999999999" y="1.67" class="d">■■■■■■■■■■■■■■■■■■■■■■■■■■■</text><text font-size="1.67" x="43.086" y="1.67" class="c">88%</text><text font-size="1.67" x="47.093999999999994" y="1.67" class="c">[22/25]</text><text font-size="1.67" x="55.10999999999999" y="1.67" class="c">(ETA:</text><text font-size="1.67" x="62.123999999999995" y="1.67" class="c">0s)</text><text font-size="1.67" x="66.13199999999999" y="1.67" class="c">P:</text><text font-size="1.67" x="69.13799999999999" y="1.67" class="c">…</text></svg><svg x="1680"><use xlink:href="#a"></use><text font-size="1.67" x="0" y="1.67" class="c">[3.8s]</text><text font-size="1.67" x="7.013999999999999" y="1.67" class="c">⠋</text><text font-size="1.67" x="9.017999999999999" y="1.67" class="d">■■■■■■■■■■■■■■■■■■■■■■■■■■■■■</text><text font-size="1.67" x="43.086" y="1.67" class="c">92%</text><text font-size="1.67" x="47.093999999999994" y="1.67" class="c">[23/25]</text><text font-size="1.67" x="55.10999999999999" y="1.67" class="c">(ETA:</text><text font-size="1.67" x="62.123999999999995" y="1.67" class="c">0s)</text><text font-size="1.67" x="66.13199999999999" y="1.67" class="c">P:</text><text font-size="1.67" x="69.13799999999999" y="1.67" class="c">…</text></svg><svg x="1760"><use xlink:href="#a"></use><text font-size="1.67" x="0" y="1.67" class="c">[4s]</text><text font-size="1.67" x="5.01" y="1.67" class="c">⠙</text><text font-size="1.67" x="7.013999999999999" y="1.67" class="d">■■■■■■■■■■■■■■■■■■■■■■■■■■■■■■</text><text font-size="1.67" x="41.082" y="1.67" class="c">96%</text><text font-size="1.67" x="45.089999999999996" y="1.67" class="c">[24/25]</text><text font-size="1.67" x="53.105999999999995" y="1.67" class="c">(ETA:</text><text font-size="1.67" x="60.11999999999999" y="1.67" class="c">0s)</text><text font-size="1.67" x="64.128" y="1.67" class="c">P:</text><text font-size="1.67" x="67.134" y="1.67" class="c">Ad…</text></svg><svg x="1840"><use xlink:href="#a"></use><use xlink:href="#1" y="0"></use></svg><svg x="1920"><use xlink:href="#a"></use><use xlink:href="#1" y="0"></use></svg><svg x="2000"><use xlink:href="#a"></use><use xlink:href="#1" y="0"></use></svg><svg x="2080"><use xlink:href="#a"></use><use xlink:href="#1" y="0"></use></svg><svg x="2160"><use xlink:href="#a"></use><use xlink:href="#1" y="0"></use></svg></svg></g></g></svg></svg>