<svg xmlns="http://www.w3.org/2000/svg" xmlns:xlink="http://www.w3.org/1999/xlink" width="840" height="61.709999999999994"><rect width="840" height="61.709999999999994" rx="0" ry="0" class="a"></rect><svg height="21.709999999999997" viewBox="0 0 80 2.171" width="800" x="20" xmlns="http://www.w3.org/2000/svg" xmlns:xlink="http://www.w3.org/1999/xlink" y="20"><style>.a{fill:rgb(241,243,245)}.b{font-family:'Fira Code',Monaco,Consolas,Menlo,'Bitstream Vera Sans Mono','Powerline Symbols',monospace}.c{fill:rgb(133,153,0);white-space:pre}.d{fill:rgb(23,36,49);white-space:pre}.e{fill:transparent}.g{animation-duration:10.1560370000007s;animation-iteration-count:infinite;animation-name:f;animation-timing-function:steps(1,end)}@keyframes f{0%{transform:translateX(-0px)}1.1%{transform:translateX(-80px)}1.2%{transform:translateX(-160px)}2.8%{transform:translateX(-240px)}6%{transform:translateX(-320px)}7.8%{transform:translateX(-400px)}9.4%{transform:translateX(-480px)}11%{transform:translateX(-560px)}12.7%{transform:translateX(-640px)}15.8%{transform:translateX(-720px)}17.5%{transform:translateX(-800px)}19.1%{transform:translateX(-880px)}20.7%{transform:translateX(-960px)}23.9%{transform:translateX(-1040px)}25.5%{transform:translateX(-1120px)}27.2%{transform:translateX(-1200px)}28.9%{transform:translateX(-1280px)}30.5%{transform:translateX(-1360px)}33.7%{transform:translateX(-1440px)}35.3%{transform:translateX(-1520px)}37%{transform:translateX(-1600px)}38.6%{transform:translateX(-1680px)}40.3%{transform:translateX(-1760px)}40.3%{transform:translateX(-1840px)}40.3%{transform:translateX(-1920px)}40.3%{transform:translateX(-2000px)}40.3%{transform:translateX(-2080px)}100%{transform:translateX(-2160px)}}</style><g font-family="&#x27;Fira Code&#x27;,Monaco,Consolas,Menlo,&#x27;Bitstream Vera Sans Mono&#x27;,&#x27;Powerline Symbols&#x27;,monospace" font-size="1.67" class="b"><defs><symbol id="1"><text font-size="1.67" x="0" y="1.67" class="c">■■■■■■■■■■■■■■■■■■■■■■■■■■■■■■■</text><text font-size="1.67" x="33.065999999999995" y="1.67" class="d">100%</text><text font-size="1.67" x="38.07599999999999" y="1.67" class="d">P:</text><text font-size="1.67" x="41.082" y="1.67" class="d">Adding</text><text font-size="1.67" x="48.096" y="1.67" class="d">25</text></symbol><symbol id="a"><rect height="1" width="80" x="0" y="0" class="e"></rect></symbol></defs><rect height="2.171" width="80" class="a"></rect><g class="g"><svg x="0" y="0" width="2240"><svg x="0"><use xlink:href="#a"></use></svg><svg x="80"><use xlink:href="#a"></use></svg><svg x="160"><use xlink:href="#a"></use><text font-size="1.67" x="0" y="1.67" class="d">⠙</text><text font-size="1.67" x="2.004" y="1.67" class="c">■■</text><text font-size="1.67" x="37.074" y="1.67" class="d">4%</text><text font-size="1.67" x="40.08" y="1.67" class="d">P:</text><text font-size="1.67" x="43.086" y="1.67" class="d">Adding</text><text font-size="1.67" x="50.1" y="1.67" class="d">1</text></svg><svg x="240"><use xlink:href="#a"></use><text font-size="1.67" x="0" y="1.67" class="d">⠹</text><text font-size="1.67" x="2.004" y="1.67" class="c">■■■</text><text font-size="1.67" x="37.074" y="1.67" class="d">8%</text><text font-size="1.67" x="40.08" y="1.67" class="d">P:</text><text font-size="1.67" x="43.086" y="1.67" class="d">Adding</text><text font-size="1.67" x="50.1" y="1.67" class="d">2</text></svg><svg x="320"><use xlink:href="#a"></use><text font-size="1.67" x="0" y="1.67" class="d">⠸</text><text font-size="1.67" x="2.004" y="1.67" class="c">■■■■■■</text><text font-size="1.67" x="36.071999999999996" y="1.67" class="d">16%</text><text font-size="1.67" x="40.08" y="1.67" class="d">P:</text><text font-size="1.67" x="43.086" y="1.67" class="d">Adding</text><text font-size="1.67" x="50.1" y="1.67" class="d">4</text></svg><svg x="400"><use xlink:href="#a"></use><text font-size="1.67" x="0" y="1.67" class="d">⠼</text><text font-size="1.67" x="2.004" y="1.67" class="c">■■■■■■■</text><text font-size="1.67" x="36.071999999999996" y="1.67" class="d">20%</text><text font-size="1.67" x="40.08" y="1.67" class="d">P:</text><text font-size="1.67" x="43.086" y="1.67" class="d">Adding</text><text font-size="1.67" x="50.1" y="1.67" class="d">5</text></svg><svg x="480"><use xlink:href="#a"></use><text font-size="1.67" x="0" y="1.67" class="d">⠴</text><text font-size="1.67" x="2.004" y="1.67" class="c">■■■■■■■■</text><text font-size="1.67" x="36.071999999999996" y="1.67" class="d">24%</text><text font-size="1.67" x="40.08" y="1.67" class="d">P:</text><text font-size="1.67" x="43.086" y="1.67" class="d">Adding</text><text font-size="1.67" x="50.1" y="1.67" class="d">6</text></svg><svg x="560"><use xlink:href="#a"></use><text font-size="1.67" x="0" y="1.67" class="d">⠦</text><text font-size="1.67" x="2.004" y="1.67" class="c">■■■■■■■■■</text><text font-size="1.67" x="36.071999999999996" y="1.67" class="d">28%</text><text font-size="1.67" x="40.08" y="1.67" class="d">P:</text><text font-size="1.67" x="43.086" y="1.67" class="d">Adding</text><text font-size="1.67" x="50.1" y="1.67" class="d">7</text></svg><svg x="640"><use xlink:href="#a"></use><text font-size="1.67" x="0" y="1.67" class="d">⠧</text><text font-size="1.67" x="2.004" y="1.67" class="c">■■■■■■■■■■■</text><text font-size="1.67" x="36.071999999999996" y="1.67" class="d">32%</text><text font-size="1.67" x="40.08" y="1.67" class="d">P:</text><text font-size="1.67" x="43.086" y="1.67" class="d">Adding</text><text font-size="1.67" x="50.1" y="1.67" class="d">8</text></svg><svg x="720"><use xlink:href="#a"></use><text font-size="1.67" x="0" y="1.67" class="d">⠇</text><text font-size="1.67" x="2.004" y="1.67" class="c">■■■■■■■■■■■■■</text><text font-size="1.67" x="36.071999999999996" y="1.67" class="d">40%</text><text font-size="1.67" x="40.08" y="1.67" class="d">P:</text><text font-size="1.67" x="43.086" y="1.67" class="d">Adding</text><text font-size="1.67" x="50.1" y="1.67" class="d">10</text></svg><svg x="800"><use xlink:href="#a"></use><text font-size="1.67" x="0" y="1.67" class="d">⠏</text><text font-size="1.67" x="2.004" y="1.67" class="c">■■■■■■■■■■■■■■</text><text font-size="1.67" x="36.071999999999996" y="1.67" class="d">44%</text><text font-size="1.67" x="40.08" y="1.67" class="d">P:</text><text font-size="1.67" x="43.086" y="1.67" class="d">Adding</text><text font-size="1.67" x="50.1" y="1.67" class="d">11</text></svg><svg x="880"><use xlink:href="#a"></use><text font-size="1.67" x="0" y="1.67" class="d">⠋</text><text font-size="1.67" x="2.004" y="1.67" class="c">■■■■■■■■■■■■■■■</text><text font-size="1.67" x="36.071999999999996" y="1.67" class="d">48%</text><text font-size="1.67" x="40.08" y="1.67" class="d">P:</text><text font-size="1.67" x="43.086" y="1.67" class="d">Adding</text><text font-size="1.67" x="50.1" y="1.67" class="d">12</text></svg><svg x="960"><use xlink:href="#a"></use><text font-size="1.67" x="0" y="1.67" class="d">⠙</text><text font-size="1.67" x="2.004" y="1.67" class="c">■■■■■■■■■■■■■■■■■</text><text font-size="1.67" x="36.071999999999996" y="1.67" class="d">52%</text><text font-size="1.67" x="40.08" y="1.67" class="d">P:</text><text font-size="1.67" x="43.086" y="1.67" class="d">Adding</text><text font-size="1.67" x="50.1" y="1.67" class="d">13</text></svg><svg x="1040"><use xlink:href="#a"></use><text font-size="1.67" x="0" y="1.67" class="d">⠹</text><text font-size="1.67" x="2.004" y="1.67" class="c">■■■■■■■■■■■■■■■■■■■</text><text font-size="1.67" x="36.071999999999996" y="1.67" class="d">60%</text><text font-size="1.67" x="40.08" y="1.67" class="d">P:</text><text font-size="1.67" x="43.086" y="1.67" class="d">Adding</text><text font-size="1.67" x="50.1" y="1.67" class="d">15</text></svg><svg x="1120"><use xlink:href="#a"></use><text font-size="1.67" x="0" y="1.67" class="d">⠸</text><text font-size="1.67" x="2.004" y="1.67" class="c">■■■■■■■■■■■■■■■■■■■■</text><text font-size="1.67" x="36.071999999999996" y="1.67" class="d">64%</text><text font-size="1.67" x="40.08" y="1.67" class="d">P:</text><text font-size="1.67" x="43.086" y="1.67" class="d">Adding</text><text font-size="1.67" x="50.1" y="1.67" class="d">16</text></svg><svg x="1200"><use xlink:href="#a"></use><text font-size="1.67" x="0" y="1.67" class="d">⠼</text><text font-size="1.67" x="2.004" y="1.67" class="c">■■■■■■■■■■■■■■■■■■■■■</text><text font-size="1.67" x="36.071999999999996" y="1.67" class="d">68%</text><text font-size="1.67" x="40.08" y="1.67" class="d">P:</text><text font-size="1.67" x="43.086" y="1.67" class="d">Adding</text><text font-size="1.67" x="50.1" y="1.67" class="d">17</text></svg><svg x="1280"><use xlink:href="#a"></use><text font-size="1.67" x="0" y="1.67" class="d">⠴</text><text font-size="1.67" x="2.004" y="1.67" class="c">■■■■■■■■■■■■■■■■■■■■■■■</text><text font-size="1.67" x="36.071999999999996" y="1.67" class="d">72%</text><text font-size="1.67" x="40.08" y="1.67" class="d">P:</text><text font-size="1.67" x="43.086" y="1.67" class="d">Adding</text><text font-size="1.67" x="50.1" y="1.67" class="d">18</text></svg><svg x="1360"><use xlink:href="#a"></use><text font-size="1.67" x="0" y="1.67" class="d">⠦</text><text font-size="1.67" x="2.004" y="1.67" class="c">■■■■■■■■■■■■■■■■■■■■■■■■</text><text font-size="1.67" x="36.071999999999996" y="1.67" class="d">76%</text><text font-size="1.67" x="40.08" y="1.67" class="d">P:</text><text font-size="1.67" x="43.086" y="1.67" class="d">Adding</text><text font-size="1.67" x="50.1" y="1.67" class="d">19</text></svg><svg x="1440"><use xlink:href="#a"></use><text font-size="1.67" x="0" y="1.67" class="d">⠧</text><text font-size="1.67" x="2.004" y="1.67" class="c">■■■■■■■■■■■■■■■■■■■■■■■■■■</text><text font-size="1.67" x="36.071999999999996" y="1.67" class="d">84%</text><text font-size="1.67" x="40.08" y="1.67" class="d">P:</text><text font-size="1.67" x="43.086" y="1.67" class="d">Adding</text><text font-size="1.67" x="50.1" y="1.67" class="d">21</text></svg><svg x="1520"><use xlink:href="#a"></use><text font-size="1.67" x="0" y="1.67" class="d">⠇</text><text font-size="1.67" x="2.004" y="1.67" class="c">■■■■■■■■■■■■■■■■■■■■■■■■■■■</text><text font-size="1.67" x="36.071999999999996" y="1.67" class="d">88%</text><text font-size="1.67" x="40.08" y="1.67" class="d">P:</text><text font-size="1.67" x="43.086" y="1.67" class="d">Adding</text><text font-size="1.67" x="50.1" y="1.67" class="d">22</text></svg><svg x="1600"><use xlink:href="#a"></use><text font-size="1.67" x="0" y="1.67" class="d">⠏</text><text font-size="1.67" x="2.004" y="1.67" class="c">■■■■■■■■■■■■■■■■■■■■■■■■■■■■■</text><text font-size="1.67" x="36.071999999999996" y="1.67" class="d">92%</text><text font-size="1.67" x="40.08" y="1.67" class="d">P:</text><text font-size="1.67" x="43.086" y="1.67" class="d">Adding</text><text font-size="1.67" x="50.1" y="1.67" class="d">23</text></svg><svg x="1680"><use xlink:href="#a"></use><text font-size="1.67" x="0" y="1.67" class="d">⠋</text><text font-size="1.67" x="2.004" y="1.67" class="c">■■■■■■■■■■■■■■■■■■■■■■■■■■■■■■</text><text font-size="1.67" x="36.071999999999996" y="1.67" class="d">96%</text><text font-size="1.67" x="40.08" y="1.67" class="d">P:</text><text font-size="1.67" x="43.086" y="1.67" class="d">Adding</text><text font-size="1.67" x="50.1" y="1.67" class="d">24</text></svg><svg x="1760"><use xlink:href="#a"></use><text font-size="1.67" x="0" y="1.67" class="d">⠙</text><text font-size="1.67" x="2.004" y="1.67" class="c">■■■■■■■■■■■■■■■■■■■■■■■■■■■■■■■</text><text font-size="1.67" x="35.06999999999999" y="1.67" class="d">100%</text><text font-size="1.67" x="40.08" y="1.67" class="d">P:</text><text font-size="1.67" x="43.086" y="1.67" class="d">Adding</text><text font-size="1.67" x="50.1" y="1.67" class="d">25</text></svg><svg x="1840"><use xlink:href="#a"></use><use xlink:href="#1" y="0"></use></svg><svg x="1920"><use xlink:href="#a"></use><use xlink:href="#1" y="0"></use></svg><svg x="2000"><use xlink:href="#a"></use><use xlink:href="#1" y="0"></use></svg><svg x="2080"><use xlink:href="#a"></use><use xlink:href="#1" y="0"></use></svg><svg x="2160"><use xlink:href="#a"></use><use xlink:href="#1" y="0"></use></svg></svg></g></g></svg></svg>